# xmcd
#
# Track frame offsets: 
#        150
#        11312
#        21424
#        28953
#        39408
#        49598
#        63049
#        72305
#        84577
#        97444
#        111412
#        122897
#        135050
#        146088
#        157280
#        167285
#        174876
#        185730
#        194426
#        204530
#        215543
#        225953
#        236552
#        246066
#
# Disc length: 3438 seconds
#
# Revision: 0
# Processed by: cddbd v1.5.2PL0 Copyright (c) Steve Scherf et al.
# Submitted via: ExactAudioCopy v1.1
#
DISCID=500d6c18
DTITLE=Jim Reeves - CD03_Milestones Of A Country Legend
DYEAR=2017
DGENRE=Country
TTITLE0=How Long Has It Been
TTITLE1=A Beautiful Life
TTITLE2=Teach Me How to Pray
TTITLE3=In the Garden
TTITLE4=The Flowers, The Sunset, the Trees
TTITLE5=It is No Secret 
TTITLE6=Padre of Old San Antone
TTITLE7=Precious Memories
TTITLE8=Suppertime
TTITLE9=Whispering Hope
TTITLE10=Evening Prayer
TTITLE11=God Be With You
TTITLE12=Someday (You'll Want Me to Want you)
TTITLE13=Just Call Me Lonseome
TTITLE14=(Now and Then There's) A fool Such as I
TTITLE15='Til the End of the World
TTITLE16=How's the World Treating You
TTITLE17=Throw Another Log on the Fire
TTITLE18=Making Believe
TTITLE19=Satan Can't Hold Me
TTITLE20=Am I Losing You
TTITLE21=Scarlet Ribbons
TTITLE22=Dear Hearts and Gentle People
TTITLE23=May the Good Lord Bless and Keep You
EXTD=
EXTT0=
EXTT1=
EXTT2=
EXTT3=
EXTT4=
EXTT5=
EXTT6=
EXTT7=
EXTT8=
EXTT9=
EXTT10=
EXTT11=
EXTT12=
EXTT13=
EXTT14=
EXTT15=
EXTT16=
EXTT17=
EXTT18=
EXTT19=
EXTT20=
EXTT21=
EXTT22=
EXTT23=
PLAYORDER=
